<svg xmlns="http://www.w3.org/2000/svg" viewBox="0 0 200 200">
  <!-- Left bird (behind) -->
  <ellipse cx="48" cy="162" rx="34" ry="26" fill="#e8e2db" stroke="#2a1f0e" stroke-width="2.2"/>
  <circle cx="52" cy="112" r="28" fill="#e8e2db" stroke="#2a1f0e" stroke-width="2.2"/>
  <path d="M40,87 Q43,75 47,86 Q50,74 54,85 Q57,74 62,87" fill="#f0c078" stroke="#2a1f0e" stroke-width="1.5" stroke-linejoin="round"/>
  <circle cx="58" cy="107" r="9" fill="#2a1f0e"/>
  <circle cx="60" cy="105" r="3" fill="white" opacity="0.7"/>
  <ellipse cx="61" cy="118" rx="8" ry="5" fill="#f0c078" stroke="#2a1f0e" stroke-width="1.3"/>
  <ellipse cx="60" cy="126" rx="5" ry="7" fill="#ffb4ab" stroke="#2a1f0e" stroke-width="1.2"/>

  <!-- Right bird (behind) -->
  <ellipse cx="152" cy="162" rx="34" ry="26" fill="#e8e2db" stroke="#2a1f0e" stroke-width="2.2"/>
  <circle cx="148" cy="112" r="28" fill="#e8e2db" stroke="#2a1f0e" stroke-width="2.2"/>
  <path d="M138,87 Q141,75 145,86 Q148,74 152,85 Q155,74 160,87" fill="#f0c078" stroke="#2a1f0e" stroke-width="1.5" stroke-linejoin="round"/>
  <circle cx="142" cy="107" r="9" fill="#2a1f0e"/>
  <circle cx="144" cy="105" r="3" fill="white" opacity="0.7"/>
  <ellipse cx="139" cy="118" rx="8" ry="5" fill="#f0c078" stroke="#2a1f0e" stroke-width="1.3"/>
  <ellipse cx="140" cy="126" rx="5" ry="7" fill="#ffb4ab" stroke="#2a1f0e" stroke-width="1.2"/>

  <!-- Center bird (front, slightly larger) -->
  <ellipse cx="100" cy="168" rx="40" ry="30" fill="#e8e2db" stroke="#2a1f0e" stroke-width="2.5"/>
  <circle cx="100" cy="110" r="34" fill="#e8e2db" stroke="#2a1f0e" stroke-width="2.5"/>
  <path d="M86,80 Q89,66 94,79 Q98,64 103,78 Q107,65 113,79 Q116,68 120,81" fill="#f0c078" stroke="#2a1f0e" stroke-width="1.8" stroke-linejoin="round"/>
  <ellipse cx="85" cy="118" rx="8" ry="6" fill="#ffb4ab" opacity="0.55"/>
  <ellipse cx="115" cy="118" rx="8" ry="6" fill="#ffb4ab" opacity="0.55"/>
  <circle cx="91" cy="104" r="11" fill="#2a1f0e"/>
  <circle cx="94" cy="101" r="4" fill="white" opacity="0.7"/>
  <circle cx="109" cy="104" r="11" fill="#2a1f0e"/>
  <circle cx="112" cy="101" r="4" fill="white" opacity="0.7"/>
  <ellipse cx="100" cy="122" rx="10" ry="7" fill="#f0c078" stroke="#2a1f0e" stroke-width="1.6"/>
  <ellipse cx="100" cy="133" rx="7" ry="9" fill="#ffb4ab" stroke="#2a1f0e" stroke-width="1.4"/>
</svg>
