<svg xmlns="http://www.w3.org/2000/svg" viewBox="0 0 200 200">
  <!-- Hen — left side -->
  <ellipse cx="58" cy="148" rx="34" ry="28" fill="#e8e2db" stroke="#2a1f0e" stroke-width="2.5"/>
  <ellipse cx="34" cy="144" rx="14" ry="20" fill="#d6c5a5" stroke="#2a1f0e" stroke-width="2"/>
  <circle cx="58" cy="78" r="34" fill="#e8e2db" stroke="#2a1f0e" stroke-width="2.5"/>
  <path d="M44,48 Q48,32 54,44 Q58,28 64,42 Q68,30 74,44" fill="#f0c078" stroke="#2a1f0e" stroke-width="1.8" stroke-linejoin="round"/>
  <circle cx="48" cy="74" r="9" fill="#2a1f0e"/>
  <circle cx="70" cy="74" r="9" fill="#2a1f0e"/>
  <circle cx="45" cy="71" r="3" fill="#e8e2db"/>
  <circle cx="67" cy="71" r="3" fill="#e8e2db"/>
  <circle cx="44" cy="70" r="1.5" fill="#f0c078"/>
  <circle cx="66" cy="70" r="1.5" fill="#f0c078"/>
  <ellipse cx="58" cy="92" rx="9" ry="7" fill="#f0c078" stroke="#2a1f0e" stroke-width="1.8"/>
  <ellipse cx="58" cy="104" rx="7" ry="8" fill="#ffb4ab" stroke="#2a1f0e" stroke-width="1.5"/>
  <line x1="48" y1="172" x2="42" y2="184" stroke="#f0c078" stroke-width="3" stroke-linecap="round"/>
  <line x1="54" y1="172" x2="50" y2="184" stroke="#f0c078" stroke-width="3" stroke-linecap="round"/>
  <line x1="64" y1="172" x2="68" y2="184" stroke="#f0c078" stroke-width="3" stroke-linecap="round"/>
  <line x1="70" y1="172" x2="76" y2="184" stroke="#f0c078" stroke-width="3" stroke-linecap="round"/>

  <!-- Huge magnifying glass — lens cx=132 cy=90 r=54, handle at 45° bottom-right -->
  <!-- Handle drawn first so it tucks under the rim -->
  <line x1="170.2" y1="128.2" x2="198" y2="156" stroke="#2a1f0e" stroke-width="9" stroke-linecap="round"/>
  <line x1="170.2" y1="128.2" x2="198" y2="156" stroke="#d6c5a5" stroke-width="5" stroke-linecap="round"/>
  <!-- Socket where handle meets rim -->
  <circle cx="170.2" cy="128.2" r="7" fill="#d6c5a5" stroke="#2a1f0e" stroke-width="2.5"/>
  <!-- Lens -->
  <circle cx="132" cy="90" r="54" fill="#f5f0ea" fill-opacity="0.45" stroke="#2a1f0e" stroke-width="4"/>
  <path d="M94,50 Q100,42 108,50" fill="none" stroke="#e8e2db" stroke-width="3" stroke-linecap="round" opacity="0.9"/>
</svg>
